<?xml version="1.0" encoding="UTF-8"?>
<svg version="1.1" xmlns="http://www.w3.org/2000/svg" width="268" height="265">
<path d="M0 0 C88.44 0 176.88 0 268 0 C268 87.45 268 174.9 268 265 C179.56 265 91.12 265 0 265 C0 177.55 0 90.1 0 0 Z " fill="#ecf0f3" transform="translate(0,0)"/>
<path d="M0 0 C71.61 0 143.22 0 217 0 C217 2.97 217 5.94 217 9 C219.97 9 222.94 9 226 9 C226 39.03 226 69.06 226 100 C154.39 100 82.78 100 9 100 C9 97.03 9 94.06 9 91 C6.03 91 3.06 91 0 91 C0 60.97 0 30.94 0 0 Z " fill="#232323" transform="translate(22,83)"/>
<path d="M0 0 C71.61 0 143.22 0 217 0 C217 2.97 217 5.94 217 9 C219.97 9 222.94 9 226 9 C226 39.03 226 69.06 226 100 C154.39 100 82.78 100 9 100 C9 97.03 9 94.06 9 91 C6.03 91 3.06 91 0 91 C0 60.97 0 30.94 0 0 Z M11 11 C11 36.74 11 62.48 11 89 C78.32 89 145.64 89 215 89 C215 63.26 215 37.52 215 11 C147.68 11 80.36 11 11 11 Z " fill="#B8B8B8" transform="translate(22,83)"/>
<path d="M0 0 C2.31 0 4.62 0 7 0 C7 28.71 7 57.42 7 87 C-63.29 87 -133.58 87 -206 87 C-206 84.69 -206 82.38 -206 80 C-138.02 80 -70.04 80 0 80 C0 53.6 0 27.2 0 0 Z " fill="#222222" transform="translate(239,94)"/>
<path d="M0 0 C70.29 0 140.58 0 213 0 C213 2.31 213 4.62 213 7 C145.02 7 77.04 7 7 7 C7 33.4 7 59.8 7 87 C4.69 87 2.38 87 0 87 C0 58.29 0 29.58 0 0 Z " fill="#222222" transform="translate(24,85)"/>
<path d="M0 0 C20 0 20 0 27 4 C29.40706735 7.13965306 29.47414213 10.12783925 29 14 C26.90741149 17.17496188 25.17308714 18.88460857 22 21 C22.928125 21.433125 23.85625 21.86625 24.8125 22.3125 C27.58416608 23.77985263 29.11853532 24.59283195 31 27 C31.8680965 31.61420662 31.63613536 35.75423491 29.5 39.9375 C20.53681388 47.33212855 11.48916977 45 0 45 C0 30.15 0 15.3 0 0 Z " fill="#F0F0F0" transform="translate(49,111)"/>
<path d="M0 0 C4.22496614 1.8244172 5.96679695 3.92818931 8 8 C8.34057617 10.86254883 8.34057617 10.86254883 8.29296875 13.95703125 C8.28330078 15.06884766 8.27363281 16.18066406 8.26367188 17.32617188 C8.23853516 18.47666016 8.21339844 19.62714844 8.1875 20.8125 C8.16719727 22.56723633 8.16719727 22.56723633 8.14648438 24.35742188 C8.11120278 27.238752 8.0619028 30.11913904 8 33 C6.02 33 4.04 33 2 33 C1.98018066 32.22285645 1.96036133 31.44571289 1.93994141 30.64501953 C1.84492991 27.13799309 1.73515441 23.63158206 1.625 20.125 C1.5940625 18.90167969 1.563125 17.67835938 1.53125 16.41796875 C1.49257812 15.25136719 1.45390625 14.08476562 1.4140625 12.8828125 C1.3826416 11.80402832 1.3512207 10.72524414 1.31884766 9.61376953 C1.25323678 6.84238346 1.25323678 6.84238346 -1 5 C-6.09389713 4.33679583 -6.09389713 4.33679583 -10.59130859 6.16259766 C-12.54880308 8.71582183 -12.4306281 10.56674723 -12.51171875 13.76171875 C-12.56489258 15.43911133 -12.56489258 15.43911133 -12.61914062 17.15039062 C-12.64169922 18.31763672 -12.66425781 19.48488281 -12.6875 20.6875 C-12.72166016 21.86634766 -12.75582031 23.04519531 -12.79101562 24.25976562 C-12.87357925 27.17308225 -12.94270322 30.08609466 -13 33 C-14.98 33 -16.96 33 -19 33 C-19 22.44 -19 11.88 -19 1 C-17.02 1 -15.04 1 -13 1 C-12.67 1.66 -12.34 2.32 -12 3 C-11.319375 2.505 -10.63875 2.01 -9.9375 1.5 C-6.29752475 -0.35871077 -4.04537127 -0.43343264 0 0 Z " fill="#DEDEDE" transform="translate(145,123)"/>
<path d="M0 0 C11.44444444 0 11.44444444 0 16 3 C16.61875 3.391875 17.2375 3.78375 17.875 4.1875 C19.79741408 7.28472269 19.74810189 10.54255613 19 14 C16.5625 16.9375 16.5625 16.9375 14 19 C13.67 19.33 13.34 19.66 13 20 C8.66469082 20.14393457 4.33842269 20.04212061 0 20 C0 13.4 0 6.8 0 0 Z " fill="#2A2A2A" transform="translate(55,133)"/>
<path d="M0 0 C3.0625 -0.625 3.0625 -0.625 7 0 C9.1624427 2.42626071 10.81889269 4.94790092 12.51953125 7.71484375 C13.79674168 10.1098278 13.79674168 10.1098278 16 11 C16.226875 10.484375 16.45375 9.96875 16.6875 9.4375 C18.4975553 6.07596873 20.73996404 3.07088856 23 0 C24.32 0.33 25.64 0.66 27 1 C25.99066406 2.21236328 25.99066406 2.21236328 24.9609375 3.44921875 C24.09800525 4.52788406 23.23607786 5.6073538 22.375 6.6875 C21.92898437 7.21794922 21.48296875 7.74839844 21.0234375 8.29492188 C19.57158919 10.06327239 19.57158919 10.06327239 18 13 C18.87545431 18.01822915 22.80997516 21.88531359 25.8984375 25.80273438 C29 29.8055626 29 29.8055626 29 32 C26.3046875 32.375 26.3046875 32.375 23 32 C21.04072278 29.98679772 19.6472999 28.29898352 18.125 26 C17.7228125 25.42765625 17.320625 24.8553125 16.90625 24.265625 C15.9195939 22.85611629 14.95731894 21.42959628 14 20 C10.53465349 23.34964212 7.82221251 26.56533679 5.30859375 30.64453125 C4.87675781 31.09183594 4.44492188 31.53914063 4 32 C2.68 32 1.36 32 0 32 C2.06715209 27.36257943 5.30306687 23.62761351 8.41796875 19.65625 C10.16074549 17.23498897 10.16074549 17.23498897 10.0234375 15.04296875 C8.51481126 12.0314744 6.51238931 9.44662441 4.4375 6.8125 C0 1.10906677 0 1.10906677 0 0 Z " fill="#E6E6E6" transform="translate(160,124)"/>
<path d="M0 0 C8.58 0 17.16 0 26 0 C20.3778553 10.11986045 20.3778553 10.11986045 17.921875 13.52734375 C17.40109375 14.25630859 16.8803125 14.98527344 16.34375 15.73632812 C15.8178125 16.46271484 15.291875 17.18910156 14.75 17.9375 C13.68116013 19.42496882 12.61339713 20.91321222 11.546875 22.40234375 C10.84836426 23.36901978 10.84836426 23.36901978 10.13574219 24.35522461 C8.93722141 26.00870667 8.93722141 26.00870667 8 28 C13.94 28.33 19.88 28.66 26 29 C26 29.99 26 30.98 26 32 C17.09 32 8.18 32 -1 32 C0.96469117 28.07061766 3.24112369 24.50809222 5.6875 20.875 C6.13013184 20.2142749 6.57276367 19.5535498 7.02880859 18.87280273 C10.61668045 13.53251823 14.28344431 8.25165478 18 3 C12.06 2.67 6.12 2.34 0 2 C0 1.34 0 0.68 0 0 Z " fill="#EBEBEB" transform="translate(194,124)"/>
<path d="M0 0 C12.03647687 -0.43505338 12.03647687 -0.43505338 16 3 C17.44430855 5.88861709 17.37688506 7.79647701 17 11 C14.827365 13.57285724 13.02006162 15.48996919 10 17 C8.29297265 17.06996014 6.58331997 17.08440154 4.875 17.0625 C3.26625 17.041875 1.6575 17.02125 0 17 C0 11.39 0 5.78 0 0 Z " fill="#282828" transform="translate(55,114)"/>
<path d="M0 0 C20 0 20 0 27 4 C29.40706735 7.13965306 29.47414213 10.12783925 29 14 C27.1875 16.6875 27.1875 16.6875 25 19 C24.54625 19.5775 24.0925 20.155 23.625 20.75 C21.25947338 22.56963586 18.91348965 22.67627893 16 23 C16.66 22.67 17.32 22.34 18 22 C18 20.68 18 19.36 18 18 C18.66 17.38125 19.32 16.7625 20 16.125 C22.29332172 14.10829186 22.29332172 14.10829186 22.375 10.9375 C22.19767963 7.81457626 22.19767963 7.81457626 20 5 C16.99221479 3.99740493 14.46179353 3.69685358 11.3125 3.4375 C10.31863281 3.35371094 9.32476562 3.26992187 8.30078125 3.18359375 C7.16189453 3.09271484 7.16189453 3.09271484 6 3 C6 2.67 6 2.34 6 2 C4.35 1.67 2.7 1.34 1 1 C1 15.19 1 29.38 1 44 C6.94 44 12.88 44 19 44 C19 44.33 19 44.66 19 45 C12.73 45 6.46 45 0 45 C0 30.15 0 15.3 0 0 Z " fill="#CDCDCD" transform="translate(49,111)"/>
<path d="M0 0 C1.65 0 3.3 0 5 0 C5 14.52 5 29.04 5 44 C3.35 44 1.7 44 0 44 C0 29.48 0 14.96 0 0 Z " fill="#F1F1F1" transform="translate(90,111)"/>
<path d="M0 0 C1.65 0 3.3 0 5 0 C5 10.23 5 20.46 5 31 C3.35 31 1.7 31 0 31 C0 20.77 0 10.54 0 0 Z " fill="#F3F3F3" transform="translate(109,124)"/>
<path d="M0 0 C0.99 0.33 1.98 0.66 3 1 C3 1.99 3 2.98 3 4 C9.27 4 15.54 4 22 4 C22 4.99 22 5.98 22 7 C13.09 7 4.18 7 -5 7 C-3.38262276 3.76524552 -2.52370777 2.29427979 0 0 Z " fill="#D6D6D6" transform="translate(198,149)"/>
<path d="M0 0 C1.2065625 0.0309375 1.2065625 0.0309375 2.4375 0.0625 C2.81968767 1.71864657 3.15145102 3.38707024 3.4375 5.0625 C2.4375 6.0625 2.4375 6.0625 -0.125 6.125 C-1.3315625 6.0940625 -1.3315625 6.0940625 -2.5625 6.0625 C-2.94468767 4.40635343 -3.27645102 2.73792976 -3.5625 1.0625 C-2.5625 0.0625 -2.5625 0.0625 0 0 Z " fill="#DFDFDF" transform="translate(111.5625,110.9375)"/>
<path d="M0 0 C1.32 0.33 2.64 0.66 4 1 C-1.96583144 9.81548975 -1.96583144 9.81548975 -7 11 C-5.22054913 6.95579349 -2.60470327 3.53921513 0 0 Z " fill="#DEDEDE" transform="translate(183,124)"/>
<path d="M0 0 C0.66 0.33 1.32 0.66 2 1 C1.34 2.65 0.68 4.3 0 6 C-1.32 6 -2.64 6 -4 6 C-2.84826645 3.53199953 -1.95216435 1.95216435 0 0 Z " fill="#D0D0D0" transform="translate(164,150)"/>
</svg>
